<?xml version="1.0" encoding="UTF-8"?>
<!DOCTYPE svg PUBLIC "-//W3C//DTD SVG 1.1//EN" "http://www.w3.org/Graphics/SVG/1.1/DTD/svg11.dtd">
<!-- Creator: CorelDRAW Home & Student X7 -->
<svg xmlns="http://www.w3.org/2000/svg" xml:space="preserve" width="1450mm" height="140mm" version="1.1" style="shape-rendering:geometricPrecision; text-rendering:geometricPrecision; image-rendering:optimizeQuality; fill-rule:evenodd; clip-rule:evenodd"
viewBox="0 0 145000 14000"
 xmlns:xlink="http://www.w3.org/1999/xlink">
 <defs>
  <style type="text/css">
   <![CDATA[
    .fil0 {fill:#FEFEFE}
   ]]>
  </style>
 </defs>
 <g id="Camada_x0020_1">
  <metadata id="CorelCorpID_0Corel-Layer"/>
  <g id="_244001648">
   <path class="fil0" d="M134376 3527l0 6247 7529 0c1339,0 2377,1150 2377,2476l0 179c-41,314 -315,557 -641,557l-10788 3c-223,0 -449,-56 -679,-167 -230,-111 -437,-258 -619,-440 -183,-183 -330,-389 -441,-619 -111,-231 -167,-465 -167,-703l0 -9370c0,-345 288,-635 621,-679l189 0c1403,0 2619,1099 2619,2516z"/>
   <path class="fil0" d="M50438 12989l5239 0 5645 0c326,0 600,-243 641,-558l0 -178c0,-1327 -1038,-2475 -2377,-2476l-7624 -3 0 -1310 6472 0c1220,0 2166,-1050 2166,-2258l0 -163c-38,-286 -288,-507 -585,-507l-2376 0 -1426 0 -4251 0 -454 0 -598 0c-1338,61 -2360,1149 -2377,2475l0 63 0 751 0 2235c0,238 55,472 166,703 112,230 258,436 441,619 182,182 389,329 619,440 230,111 456,167 679,167zm1524 -8763l5677 0 1947 0c1339,0 2377,-1152 2377,-2479l0 -178c-41,-315 -315,-558 -641,-558l-5645 0 -5239 0c-223,0 -449,56 -679,167 -230,111 -437,258 -619,441 -183,182 -329,388 -441,619 -111,230 -166,464 -166,702l0 1286 3429 0z"/>
   <path class="fil0" d="M105635 4226l0 8763 3429 0 0 -8763 3028 0c1339,0 2377,-1149 2377,-2475l0 -179c-41,-315 -315,-558 -641,-558l-11221 -3c-1339,0 -2378,1150 -2378,2476l0 179c41,314 316,557 642,557l4764 3z"/>
   <path class="fil0" d="M87645 1523c420,294 964,739 1631,1334 666,595 1488,1357 2464,2286 977,928 2155,2043 3537,3345l0 -4961c0,-1418 1216,-2516 2619,-2516l189 0c333,44 621,334 621,679l0 9799c0,190 -52,373 -155,547 -103,175 -242,334 -417,477 -175,143 -381,258 -619,345 -238,87 -484,131 -738,131l-667 0c-338,0 -891,-342 -1155,-524 -436,-302 -1000,-754 -1691,-1357 -690,-604 -1524,-1369 -2500,-2298 -976,-929 -2131,-2036 -3465,-3322l0 4985c0,1417 -1216,2516 -2619,2516l-189 0c-333,-44 -621,-334 -621,-679l0 -9798c0,-175 52,-354 155,-536 103,-183 242,-346 417,-488 174,-143 381,-258 619,-346 238,-87 492,-131 762,-131l643 0c374,0 887,308 1179,512z"/>
   <polygon class="fil0" points="82346,1011 78894,1011 78894,12989 82346,12989 "/>
   <path class="fil0" d="M63487 8011l0 63 0 4915 3429 0 0 -4525 3500 0 3501 4525 3881 0 -3286 -4525 977 0c222,0 448,-55 678,-166 230,-111 437,-258 619,-441 183,-182 330,-389 441,-619 111,-230 166,-464 166,-702l0 -3596c0,-238 -55,-472 -166,-702 -111,-231 -258,-437 -441,-619 -182,-183 -389,-330 -619,-441 -230,-111 -457,-167 -678,-167l-9625 3c-1339,0 -2377,1150 -2377,2476l0 179c41,314 315,557 641,557l5645 0 4191 0 0 1310 -8100 0c-1339,0 -2377,1150 -2377,2475z"/>
   <path class="fil0" d="M33102 8011l0 4978 3429 0 0 -4525 8573 0c222,0 448,-55 679,-166 230,-111 436,-258 619,-441 182,-182 329,-389 440,-619 111,-230 167,-464 167,-702l0 -3596c0,-238 -56,-472 -167,-702 -111,-231 -258,-437 -440,-619 -183,-183 -389,-330 -619,-441 -230,-111 -457,-167 -679,-167l-9624 3c-1339,0 -2378,1150 -2378,2476l0 179c41,314 316,557 642,557l5645 0 4191 0 0 1310 -8100 0c-1339,0 -2378,1150 -2378,2475z"/>
   <path class="fil0" d="M20220 9774l0 -6247c0,-1418 -1217,-2516 -2620,-2516l-189 0c-332,44 -620,334 -620,679l0 9370c0,238 56,472 167,703 111,230 257,436 440,619 183,182 389,329 619,440 230,111 457,167 679,167l10977 0c223,0 449,-56 679,-167 230,-111 436,-258 619,-440 183,-183 330,-389 441,-619 111,-231 167,-465 167,-703l0 -9370c0,-345 -290,-635 -623,-679l-189 0c-1391,0 -2617,1081 -2617,2482l0 6281 -7930 0z"/>
   <path class="fil0" d="M11838 8464l0 1310 -8743 3c-1336,0 -2377,1144 -2377,2465l0 189c40,315 315,558 640,558l5646 0 6358 0c222,0 448,-56 679,-167 230,-111 436,-258 619,-440 182,-183 329,-389 440,-619 111,-231 167,-465 167,-703l0 -3596c0,-238 -56,-472 -167,-702 -111,-230 -258,-437 -440,-619 -183,-183 -389,-330 -619,-441 -227,-109 -450,-165 -668,-166l-11 0 -9216 0 -3428 0 0 1000c0,238 55,472 166,702 111,230 258,437 441,619 182,183 389,330 619,441 230,111 456,166 679,166l9215 0zm-7692 -4238l8744 0c1339,0 2377,-1149 2377,-2475l0 -179c-41,-315 -316,-558 -641,-558l-12003 -3c-223,0 -449,56 -679,167 -230,111 -437,258 -619,441 -183,182 -330,388 -441,619 -111,230 -166,464 -166,702l0 1286 3428 0z"/>
   <path class="fil0" d="M117898 12989l5239 0 5645 0c326,0 601,-243 642,-558l0 -178c0,-1327 -1039,-2475 -2378,-2476l-7624 -3 0 -1310 6473 0c1220,0 2165,-1050 2165,-2258l0 -163c-37,-286 -288,-507 -584,-507l-2377 0 -1425 0 -4252 0 -454 0 -597 0c-1338,61 -2360,1149 -2378,2475l0 63 0 751 0 2235c0,238 56,472 167,703 111,230 258,436 440,619 183,182 389,329 620,440 230,111 456,167 678,167zm1524 -8763l5677 0 1947 0c1340,0 2378,-1152 2378,-2479l0 -178c-41,-315 -316,-558 -642,-558l-5645 0 -5239 0c-222,0 -448,56 -678,167 -231,111 -437,258 -620,441 -182,182 -329,388 -440,619 -111,230 -167,464 -167,702l0 1286 3429 0z"/>
  </g>
 </g>
</svg>
